<svg width="538" height="408" viewBox="0 0 538 408" fill="none" xmlns="http://www.w3.org/2000/svg">
<g opacity="0.25">
<mask id="mask0_1_362" style="mask-type:alpha" maskUnits="userSpaceOnUse" x="0" y="0" width="538" height="408">
<rect x="536.553" y="0.5" width="406.678" height="535.857" transform="rotate(90 536.553 0.5)" fill="url(#paint0_linear_1_362)" stroke="#6246E5"/>
</mask>
<g mask="url(#mask0_1_362)">
<path d="M145.59 521.712C68.0161 521.712 5.12082 458.125 5.12082 379.674C5.12082 301.223 68.0161 237.636 145.59 237.636C223.163 237.636 286.059 301.223 286.059 379.674C286.059 458.125 223.163 521.712 145.59 521.712Z" stroke="#E5E5E5"/>
<path d="M160.428 527.337C73.6351 527.337 3.26574 456.193 3.26574 368.42C3.26574 280.647 73.6351 209.502 160.428 209.502C247.222 209.502 317.591 280.647 317.591 368.42C317.591 456.193 247.222 527.337 160.428 527.337Z" stroke="#E5E5E5"/>
<path d="M172.486 532.966C77.497 532.966 0.484119 455.104 0.484123 359.044C0.484127 262.985 77.497 185.123 172.486 185.123C267.474 185.123 344.487 262.985 344.487 359.044C344.487 455.104 267.474 532.966 172.486 532.966Z" stroke="#E5E5E5"/>
<path d="M190.106 536.716C87.9467 536.716 5.12065 452.976 5.12066 349.666C5.12066 246.356 87.9467 162.616 190.106 162.616C292.266 162.616 375.092 246.356 375.092 349.666C375.092 452.976 292.266 536.716 190.106 536.716Z" stroke="#E5E5E5"/>
<path d="M207.264 540.467C98.1895 540.467 9.75798 451.059 9.75799 340.757C9.75799 230.455 98.1895 141.048 207.264 141.048C316.338 141.048 404.769 230.455 404.769 340.757C404.769 451.059 316.338 540.467 207.264 540.467Z" stroke="#E5E5E5"/>
<path d="M226.74 545.156C106.91 545.156 9.75861 446.932 9.75861 325.754C9.75862 204.576 106.91 106.351 226.74 106.351C346.571 106.351 443.722 204.576 443.722 325.754C443.722 446.932 346.571 545.156 226.74 545.156Z" stroke="#E5E5E5"/>
</g>
</g>
<defs>
<linearGradient id="paint0_linear_1_362" x1="826.194" y1="15.0621" x2="549.966" y2="543.606" gradientUnits="userSpaceOnUse">
<stop stop-color="#747DEF"/>
<stop offset="1" stop-color="#5E3BE1"/>
</linearGradient>
</defs>
</svg>
