<svg width="29" height="29" viewBox="0 0 29 29" fill="none" xmlns="http://www.w3.org/2000/svg">
<path fill-rule="evenodd" clip-rule="evenodd" d="M14.4957 0C6.49046 0 0 6.49046 0 14.4957C0 22.501 6.49046 28.9915 14.4957 28.9915C22.501 28.9915 28.9915 22.501 28.9915 14.4957C28.9915 6.49046 22.501 0 14.4957 0ZM14.496 2.41597C21.1568 2.41597 26.5758 7.83496 26.5758 14.4957C26.5758 21.1565 21.1568 26.5755 14.496 26.5755C7.83523 26.5755 2.41625 21.1565 2.41625 14.4957C2.41625 7.83496 7.83523 2.41597 14.496 2.41597ZM9.66411 12.0798H12.0801V10.0359C12.0801 8.20458 13.044 7.24786 15.216 7.24786H18.12V10.2678H16.378C15.82 10.2678 15.704 10.4961 15.704 11.0735V12.0798H18.12L17.9025 14.4957H15.704V21.7436H12.0801V14.4957H9.66411V12.0798Z" fill="#979797"/>
</svg>
