<svg width="25" height="25" viewBox="0 0 25 25" fill="none" xmlns="http://www.w3.org/2000/svg">
<g clip-path="url(#clip0_1_422)">
<path d="M4.06415 20.3026H21.3975" stroke="#B05D33"/>
<path d="M2.49516 21.3706C2.36498 21.4973 2.36498 21.7027 2.49516 21.8293C2.62533 21.956 2.83638 21.956 2.96656 21.8293L2.49516 21.3706ZM7.63326 17.2887C7.76339 17.1621 7.76339 16.9568 7.63326 16.8301C7.50306 16.7035 7.292 16.7035 7.16182 16.8301L7.63326 17.2887ZM2.96656 21.8293L7.63326 17.2887L7.16182 16.8301L2.49516 21.3706L2.96656 21.8293Z" fill="#D67B4D"/>
<path d="M2.49516 21.3706C2.36498 21.4973 2.36498 21.7027 2.49516 21.8293C2.62533 21.956 2.83638 21.956 2.96656 21.8293L2.49516 21.3706ZM7.63326 17.2887C7.76339 17.1621 7.76339 16.9568 7.63326 16.8301C7.50306 16.7035 7.292 16.7035 7.16182 16.8301L7.63326 17.2887ZM2.96656 21.8293L7.63326 17.2887L7.16182 16.8301L2.49516 21.3706L2.96656 21.8293Z" fill="#D67B4D"/>
<path d="M22.9666 21.3706C23.0967 21.4973 23.0967 21.7027 22.9666 21.8293C22.8364 21.956 22.6253 21.956 22.4951 21.8293L22.9666 21.3706ZM17.8284 17.2887C17.6983 17.1621 17.6983 16.9568 17.8284 16.8301C17.9586 16.7035 18.1697 16.7035 18.2999 16.8301L17.8284 17.2887ZM22.4951 21.8293L17.8284 17.2887L18.2999 16.8301L22.9666 21.3706L22.4951 21.8293Z" fill="#D67B4D"/>
<path d="M22.9666 21.3706C23.0967 21.4973 23.0967 21.7027 22.9666 21.8293C22.8364 21.956 22.6253 21.956 22.4951 21.8293L22.9666 21.3706ZM17.8284 17.2887C17.6983 17.1621 17.6983 16.9568 17.8284 16.8301C17.9586 16.7035 18.1697 16.7035 18.2999 16.8301L17.8284 17.2887ZM22.4951 21.8293L17.8284 17.2887L18.2999 16.8301L22.9666 21.3706L22.4951 21.8293Z" fill="#D67B4D"/>
<path fill-rule="evenodd" clip-rule="evenodd" d="M8.06415 2.95297C8.28635 2.83699 8.79748 2.46586 9.06415 1.90916C9.39748 1.21329 9.73081 0.865356 10.7308 0.865356H12.0641H14.0641C15.0641 0.865356 15.3975 1.21329 15.7308 1.90916C15.9975 2.46586 16.5086 2.83699 16.7308 2.95297H18.7308C19.8354 2.95297 20.7308 3.82419 20.7308 4.89891V13.1673C20.7308 16.7497 17.746 19.6538 14.0641 19.6538H10.7308C7.04891 19.6538 4.06415 16.7497 4.06415 13.1673V4.89891C4.06415 3.82419 4.95958 2.95297 6.06415 2.95297H8.06415Z" fill="#42A8C3"/>
<path d="M14.0642 2.81125C14.0642 2.73441 14.0154 2.65567 13.9396 2.58009C13.5552 2.19676 12.948 2.1626 12.3975 2.1626C11.847 2.1626 11.2181 2.16678 10.8459 2.5614C10.7755 2.63599 10.7308 2.71927 10.7308 2.81125C10.7308 3.13557 10.7308 3.45989 11.1475 3.45989H13.6475C14.0642 3.45989 14.0642 3.13557 14.0642 2.81125Z" fill="white"/>
<path d="M6.73083 6.68098C6.73083 5.96449 7.32779 5.38367 8.06417 5.38367H16.7308C17.4672 5.38367 18.0642 5.96449 18.0642 6.68098V9.27557C18.0642 11.425 16.2733 13.1675 14.0642 13.1675H10.7308C8.5217 13.1675 6.73083 11.425 6.73083 9.27557V6.68098Z" fill="white"/>
<mask id="mask0_1_422" style="mask-type:alpha" maskUnits="userSpaceOnUse" x="6" y="5" width="13" height="9">
<path d="M6.73083 6.68098C6.73083 5.96449 7.32779 5.38367 8.06417 5.38367H16.7308C17.4672 5.38367 18.0642 5.96449 18.0642 6.68098V9.27557C18.0642 11.425 16.2733 13.1675 14.0642 13.1675H10.7308C8.5217 13.1675 6.73083 11.425 6.73083 9.27557V6.68098Z" fill="white"/>
</mask>
<g mask="url(#mask0_1_422)">
<path d="M17.0644 6.35664C17.0644 5.57826 15.8422 5.38367 15.0645 5.38367H18.0645L18.0644 13.4918C15.8422 13.5999 9.66442 13.4918 10.7311 13.4918C12.0644 13.4918 14.3978 12.5188 15.3978 11.8702C16.3126 11.2768 17.0645 10.2485 17.0644 9.27557V6.35664Z" fill="#C3D3DB"/>
</g>
</g>
<defs>
<clipPath id="clip0_1_422">
<rect width="24" height="24" fill="white" transform="translate(0.730835 0.172363)"/>
</clipPath>
</defs>
</svg>
