<svg width="163" height="314" viewBox="0 0 163 314" fill="none" xmlns="http://www.w3.org/2000/svg">
<g clip-path="url(#clip0_1_313)">
<path d="M162.264 21.347L161.909 24.6883L119.74 295.704C118.072 306.429 110.108 313.788 101.404 313.347H101.058H100.716H100.369H100.023H99.6806H99.5223C105.801 312.954 111.498 308.534 114.441 301.835C114.616 301.432 114.783 301.026 114.937 300.607C115.044 300.329 115.142 300.046 115.237 299.751C115.671 298.431 115.996 297.077 116.207 295.704L158.842 21.7192C158.872 21.5438 158.898 21.3684 158.915 21.1973C159.024 20.4184 159.094 19.6345 159.124 18.8486C159.527 8.70495 153.363 1.01702 144.488 0.880122H143.962H143.436H142.91C142.739 0.880122 142.559 0.880122 142.384 0.880122H141.858H141.511H141.148L140.681 0.82451H140.656L140.207 0.790283C140.361 0.790283 140.506 0.790283 140.66 0.790283H141.186C141.361 0.790283 141.537 0.790283 141.712 0.790283H142.225H142.752C142.927 0.790283 143.098 0.790283 143.278 0.790283H143.804H144.33H144.856H145.382H145.908C146.083 0.790283 146.254 0.790283 146.43 0.790283H146.558C156.605 2.19781 163.414 10.5061 162.264 21.347Z" fill="url(#paint0_linear_1_313)"/>
<path d="M158.842 21.681L116.22 295.657C114.659 305.694 107.576 312.791 99.5395 313.292H99.3513H99.0048H98.6584C98.5472 313.292 98.4274 313.292 98.3162 313.292H97.9698H97.6233H97.2769H96.9304H96.5882H96.2503C95.3259 313.268 94.4068 313.144 93.5087 312.924L30.3993 297.206L30.2795 297.176L12.5336 293.065C4.33001 291.174 -0.883831 281.034 0.76715 270.39L38.4061 28.4706L39.1888 23.11C40.087 16.9536 42.9912 11.4048 46.8064 7.76833C47.1144 7.47313 47.4309 7.19077 47.7517 6.91269C47.9655 6.733 48.1794 6.5576 48.4018 6.39075C48.6242 6.2239 48.8295 6.0656 49.0648 5.90731C49.8229 5.37659 50.6258 4.9128 51.4643 4.52118C51.6995 4.41422 51.939 4.31154 52.1743 4.2217C53.4497 3.70877 54.804 3.41933 56.1777 3.36606L138.406 0.657959L141.131 0.743522H141.306C141.486 0.743522 141.661 0.743522 141.832 0.743522C142.003 0.743522 142.187 0.743522 142.358 0.743522C142.529 0.743522 142.713 0.743522 142.884 0.743522H143.41C143.586 0.743522 143.761 0.743522 143.936 0.743522H144.462C154.167 0.983101 160.626 10.1556 158.842 21.681Z" fill="url(#paint1_linear_1_313)"/>
<path d="M145.155 5.14121C144.918 4.97187 144.673 4.81479 144.42 4.6706C144.655 4.79895 144.903 4.95724 145.155 5.14121ZM143.872 4.37541C144.048 4.46097 144.214 4.55082 144.385 4.64921C144.304 4.61071 144.227 4.56365 144.15 4.52514L143.872 4.37541ZM141.631 3.54971C142.117 3.66866 142.595 3.82163 143.059 4.00748L143.367 4.14011C142.725 3.85706 142.056 3.6392 141.37 3.48982L141.631 3.54971ZM141.13 3.43848L140.985 3.41281L140.728 3.37003C140.947 3.39998 141.156 3.44704 141.37 3.48982H141.331L141.13 3.43848ZM143.611 4.25134H143.573L143.367 4.15722C143.534 4.23423 143.705 4.30696 143.868 4.38824L143.611 4.25134ZM140.19 3.29302H139.903L140.42 3.34864L140.728 3.39142C140.574 3.36147 140.42 3.34008 140.266 3.32297L140.19 3.29302ZM12.7944 290.283L12.9185 290.335H12.8971L12.7944 290.283ZM12.6704 290.228H12.6918L12.572 290.176L12.6704 290.228ZM12.5122 290.155L12.572 290.181L12.4437 290.121L12.5122 290.155ZM10.2752 288.726C10.2362 288.697 10.1991 288.666 10.164 288.632L10.2752 288.726ZM9.46254 287.99L9.60796 288.131L9.45399 287.977L9.46254 287.99ZM5.87828 282.257L5.97666 282.518L6.04082 282.681L5.93817 282.407C5.91679 282.369 5.89967 282.309 5.87828 282.257ZM4.68069 277.41V277.5C4.68069 277.41 4.65502 277.312 4.64646 277.218C4.66357 277.282 4.67641 277.35 4.68069 277.41ZM4.57803 276.482C4.57803 276.482 4.57803 276.512 4.57803 276.525C4.57597 276.505 4.57597 276.485 4.57803 276.465V276.482ZM4.55236 276.14C4.55027 276.151 4.55027 276.163 4.55236 276.174C4.55236 276.063 4.55237 275.943 4.5267 275.827C4.53526 275.951 4.54381 276.033 4.55236 276.14ZM141.13 0.794551C140.818 0.751768 140.506 0.726103 140.19 0.704712C140.07 0.704712 139.941 0.704712 139.813 0.704712C139.685 0.704712 139.484 0.704712 139.321 0.704712C139.159 0.704712 139.124 0.704712 139.022 0.704712H138.423L56.1905 3.42992C54.8165 3.48123 53.462 3.77074 52.187 4.28556C51.9518 4.37969 51.7123 4.47809 51.477 4.58932C50.636 4.97856 49.8315 5.44246 49.0733 5.97545C48.8509 6.12519 48.6456 6.29204 48.4146 6.45889C48.1836 6.62574 47.9869 6.79687 47.7645 6.97655C47.4437 7.24608 47.1272 7.52844 46.8192 7.83219C43.004 11.4687 40.0998 17.0175 39.2016 23.1695L38.4189 28.543L3.11525 270.484C1.55836 281.128 6.35305 291.255 13.9236 293.128L30.2795 297.176L30.3992 297.206L93.483 312.825C94.4899 313.078 95.5244 313.204 96.5625 313.202C104.321 313.18 111.323 305.929 112.841 295.499L152.816 21.4839C154.398 10.6173 149.219 1.85554 141.13 0.794551ZM152.606 18.4293V18.9256C152.606 19.0967 152.606 19.2635 152.576 19.4304C152.546 19.5972 152.55 19.7727 152.538 19.9395C152.508 20.2518 152.478 20.5641 152.435 20.885C152.412 21.0846 152.387 21.2857 152.358 21.4882L152.067 23.469L112.717 293.424C112.41 295.552 111.835 297.634 111.006 299.618C110.947 299.764 110.887 299.909 110.823 300.046C110.758 300.183 110.694 300.337 110.626 300.474C110.557 300.611 110.527 300.688 110.476 300.791C110.322 301.103 110.164 301.411 109.997 301.71C109.929 301.847 109.852 301.98 109.779 302.108C109.706 302.237 109.565 302.472 109.454 302.652C109.343 302.831 109.308 302.891 109.231 303.007C109.154 303.122 109.073 303.255 108.988 303.379C108.765 303.717 108.526 304.051 108.278 304.376C108.201 304.474 108.124 304.577 108.042 304.675C107.961 304.774 107.863 304.902 107.769 305.009C107.675 305.116 107.589 305.227 107.495 305.334C107.401 305.441 107.311 305.548 107.213 305.651C107.114 305.753 107.024 305.86 106.922 305.963C106.734 306.168 106.533 306.365 106.332 306.553C106.024 306.849 105.711 307.131 105.386 307.409L105.095 307.644C104.873 307.815 104.668 307.982 104.42 308.145L104.12 308.35C103.791 308.573 103.453 308.778 103.111 308.966C103 309.035 102.884 309.095 102.769 309.155C102.538 309.274 102.302 309.386 102.072 309.493L101.725 309.647C101.349 309.805 100.968 309.946 100.583 310.074C100.484 310.112 100.382 310.143 100.279 310.168C100.16 310.207 100.04 310.241 99.9158 310.271L99.548 310.361C99.2742 310.421 99.0005 310.476 98.7225 310.519L98.4316 310.562C98.0681 310.613 97.7045 310.643 97.3324 310.66H96.9475H96.5197C96.2674 310.66 96.0193 310.66 95.7627 310.618H95.6173H95.5489H95.5146H95.7071H95.7627C95.8782 310.618 95.9937 310.618 96.1092 310.618C96.146 310.624 96.1836 310.624 96.2204 310.618H97.0758C97.1213 310.622 97.1671 310.622 97.2126 310.618H97.3495H97.4564H97.6532C97.7687 310.618 97.8756 310.618 97.9868 310.579L98.2477 310.541L98.4188 310.511H98.5215L98.6198 310.489H98.6797C98.7306 310.482 98.7806 310.471 98.8294 310.455H98.8893H98.9321C99.2186 310.391 99.5009 310.318 99.7875 310.233C99.8171 310.228 99.8458 310.219 99.873 310.207H99.9244C99.9885 310.207 100.048 310.168 100.108 310.143H100.177L100.48 310.036L101.049 309.805H101.083C101.28 309.715 101.473 309.629 101.665 309.531C101.858 309.433 102.037 309.338 102.217 309.24C102.23 309.243 102.243 309.243 102.255 309.24C102.555 309.069 102.85 308.889 103.145 308.692C103.185 308.671 103.222 308.645 103.256 308.615C103.273 308.608 103.289 308.598 103.303 308.586L103.367 308.543L103.432 308.491C103.569 308.397 103.701 308.299 103.834 308.2C103.966 308.102 104.103 307.991 104.231 307.884C104.895 307.339 105.515 306.743 106.083 306.1L106.203 305.959L106.323 305.818C106.644 305.441 106.947 305.047 107.238 304.637C107.435 304.363 107.619 304.081 107.803 303.781C107.871 303.678 107.935 303.567 108.004 303.46L108.072 303.345L108.308 302.917L108.397 302.759C108.427 302.699 108.462 302.643 108.496 302.579C108.53 302.515 108.556 302.468 108.581 302.416C108.638 302.319 108.689 302.219 108.735 302.117C108.751 302.088 108.766 302.058 108.778 302.027L108.881 301.813C108.941 301.702 109.001 301.582 109.052 301.462C109.053 301.448 109.053 301.434 109.052 301.42C109.107 301.3 109.159 301.184 109.21 301.06L109.377 300.675C109.428 300.547 109.484 300.414 109.535 300.282C109.586 300.149 109.634 300.021 109.685 299.888C109.736 299.755 109.732 299.755 109.758 299.687C109.783 299.618 109.805 299.554 109.83 299.482L109.92 299.221C109.95 299.122 109.984 299.019 110.018 298.917C110.053 298.814 110.091 298.69 110.121 298.57C110.124 298.553 110.124 298.536 110.121 298.519C110.172 298.348 110.224 298.172 110.271 297.997C110.318 297.822 110.386 297.543 110.442 297.317C110.493 297.09 110.545 296.863 110.592 296.632C110.639 296.401 110.669 296.256 110.703 296.063C110.703 296.012 110.703 295.956 110.733 295.901C110.771 295.674 110.814 295.439 110.844 295.208L150.741 21.6722C150.814 21.1545 150.878 20.6326 150.917 20.1235C151.026 18.8695 151.026 17.6084 150.917 16.3544C150.921 16.3404 150.921 16.3255 150.917 16.3116C150.917 16.1747 150.887 16.0378 150.87 15.8838C150.852 15.7298 150.87 15.7041 150.84 15.6142C150.805 15.3704 150.771 15.1308 150.733 14.8955L150.604 14.2067C150.579 14.0912 150.553 13.9757 150.532 13.8645C150.51 13.7532 150.476 13.6334 150.45 13.5222C150.453 13.4909 150.453 13.4594 150.45 13.4281C150.45 13.3468 150.408 13.2698 150.386 13.1885C150.365 13.1284 150.348 13.0669 150.335 13.0045C150.335 12.9618 150.335 12.919 150.296 12.8762L150.198 12.5468C150.1 12.2216 149.988 11.905 149.873 11.5927C149.835 11.4943 149.796 11.3959 149.762 11.2975L149.702 11.1564C149.681 11.0965 149.655 11.0366 149.629 10.9809C149.586 10.8826 149.548 10.7842 149.501 10.6858C149.415 10.4932 149.326 10.3007 149.231 10.1125C149.184 10.0141 149.133 9.91568 149.082 9.81728C149.03 9.71888 148.979 9.62904 148.928 9.5392C148.903 9.48793 148.876 9.43795 148.846 9.38946C148.795 9.29534 148.74 9.2055 148.684 9.11138L148.568 8.91886L148.457 8.75201L148.414 8.68356C148.367 8.61083 148.32 8.5381 148.269 8.46537C148.259 8.4473 148.248 8.43011 148.235 8.41403C148.149 8.28996 148.059 8.16162 147.965 8.03755L147.863 7.89637L147.794 7.80652C147.761 7.76046 147.725 7.71619 147.687 7.6739L147.529 7.47282L147.405 7.32737L147.2 7.09206L147.084 6.968C147.042 6.91666 146.994 6.86532 146.947 6.81826L146.781 6.64713L146.622 6.48884L146.562 6.43322L146.391 6.27493L146.199 6.09524L146.118 6.0268L145.934 5.8685L145.891 5.83855C145.814 5.77438 145.733 5.70592 145.651 5.64603C145.502 5.53052 145.356 5.42356 145.202 5.31233H145.172C144.935 5.14299 144.69 4.98593 144.437 4.84173C144.355 4.80323 144.278 4.75617 144.201 4.71766L143.923 4.56793L143.667 4.44814H143.628L143.423 4.35402C142.781 4.07097 142.111 3.85311 141.426 3.70373H141.387L141.186 3.66094L141.041 3.63528L140.784 3.5925C140.63 3.56255 140.476 3.54116 140.322 3.52405H140.245H139.959H139.783H139.458C139.21 3.52405 138.962 3.52405 138.705 3.52405L55.9039 6.06102C55.6857 6.06102 55.4762 6.06102 55.2538 6.10808L54.9415 6.1423C48.3761 6.99794 42.2512 14.5019 40.951 23.422L4.74484 270.856C4.52085 272.372 4.44208 273.907 4.5096 275.438C4.5096 275.438 4.5096 275.464 4.5096 275.472C4.5096 275.592 4.5096 275.712 4.5096 275.827C4.5096 275.943 4.5096 276.033 4.5096 276.14C4.50751 276.151 4.50751 276.163 4.5096 276.174C4.5096 276.272 4.5096 276.366 4.53098 276.465C4.53098 276.465 4.53098 276.495 4.53098 276.508C4.52887 276.529 4.52887 276.55 4.53098 276.572C4.53098 276.644 4.53098 276.713 4.55236 276.786C4.55423 276.807 4.55423 276.828 4.55236 276.85C4.55236 276.85 4.55236 276.85 4.55236 276.875C4.55236 276.982 4.57375 277.094 4.59086 277.201C4.60797 277.308 4.59087 277.333 4.61225 277.393V277.483C4.61225 277.59 4.64219 277.693 4.65503 277.795C4.65503 277.902 4.68496 278.005 4.70635 278.108C4.72773 278.21 4.75767 278.441 4.79188 278.604C4.79188 278.668 4.81328 278.728 4.82611 278.788V278.878C4.82611 278.955 4.85604 279.036 4.87315 279.113C4.87777 279.145 4.88493 279.176 4.89454 279.207C4.91593 279.318 4.94159 279.43 4.96725 279.541C4.99291 279.652 4.99719 279.665 5.01002 279.729C5.02285 279.793 5.06563 279.943 5.09129 280.046L5.12978 280.187C5.12978 280.247 5.15973 280.307 5.17256 280.362C5.18539 280.418 5.17256 280.401 5.17256 280.422L5.19822 280.508C5.19822 280.576 5.23672 280.64 5.25382 280.704L5.33509 280.978C5.4463 281.346 5.57033 281.714 5.70292 282.065C5.70292 282.121 5.74142 282.172 5.75853 282.219L5.8569 282.48L5.92106 282.643C6.4562 283.984 7.1605 285.252 8.01686 286.416C8.07247 286.493 8.13234 286.566 8.18795 286.638C8.43174 286.951 8.67982 287.25 8.94073 287.533L8.97922 287.575L9.02628 287.622L9.12038 287.725L9.29573 287.905L9.33423 287.939L9.47965 288.08C9.61652 288.208 9.74912 288.332 9.90737 288.457L9.95441 288.499C9.99291 288.525 10.0228 288.555 10.0613 288.585L10.164 288.675L10.3137 288.795C10.4506 288.906 10.5917 289.017 10.7414 289.12L10.8227 289.175C10.9396 289.261 11.0593 289.342 11.182 289.419L11.2675 289.479L11.6311 289.697L11.7252 289.749L11.7765 289.779C11.9561 289.881 12.14 289.975 12.3282 290.065L12.3967 290.099L12.4566 290.125L12.5549 290.172H12.5763C12.6405 290.206 12.7089 290.232 12.7816 290.262L12.679 290.223L12.5592 290.181C12.3496 290.091 12.1315 290.001 11.9518 289.898C10.7105 289.261 9.58555 288.42 8.62422 287.408L8.41037 287.186C8.235 286.993 8.05963 286.797 7.89282 286.591L7.66613 286.309C7.27691 285.821 6.91837 285.31 6.59258 284.777C6.52771 284.682 6.46775 284.584 6.41293 284.482C6.23329 284.187 6.06221 283.887 5.89968 283.579L5.74569 283.271L5.57033 282.912L5.40353 282.553L5.29232 282.309L5.15973 282.001C4.9031 281.38 4.67213 280.739 4.46683 280.084C4.42833 279.969 4.39412 279.849 4.3599 279.729C4.24869 279.365 4.15031 278.993 4.06049 278.612C4.02628 278.48 3.99206 278.343 3.9664 278.185C3.73223 277.15 3.56648 276.101 3.47024 275.044C3.47024 274.899 3.44458 274.754 3.43175 274.617C3.37615 273.876 3.35049 273.132 3.35905 272.379C3.35905 272.229 3.35905 272.075 3.35905 271.926C3.3876 270.85 3.479 269.777 3.63278 268.713L39.2016 24.8552L39.4625 23.0712C39.4882 22.8858 39.5181 22.7018 39.5523 22.5193C39.5523 22.3824 39.5951 22.2455 39.6208 22.0914C39.6764 21.7877 39.7362 21.4925 39.8004 21.1973C39.8346 21.0433 39.8688 20.885 39.9073 20.7353C39.9073 20.654 39.9458 20.5727 39.9629 20.4914C39.98 20.4101 40.0057 20.2989 40.0356 20.2005C40.0656 20.1021 40.1169 19.8924 40.1597 19.7342C40.231 19.4661 40.308 19.2008 40.3906 18.9384C40.4291 18.8058 40.4719 18.6774 40.5147 18.5491C40.6387 18.1555 40.7713 17.7747 40.9167 17.394C40.9595 17.2742 41.0108 17.1544 41.0536 17.0346L41.229 16.6068L41.3829 16.2431C41.4214 16.1405 41.4642 16.0463 41.507 15.9479L41.6652 15.5971L41.7893 15.3319C41.8534 15.2035 41.909 15.0752 41.9775 14.9426C42.0844 14.7244 42.1999 14.5147 42.3154 14.2752L42.4993 13.9372C42.5677 13.8088 42.6404 13.6805 42.7131 13.5522C43.2114 12.671 43.7627 11.8209 44.3641 11.0066C44.4497 10.8911 44.5309 10.7799 44.6208 10.6686L44.9159 10.2879C45.0827 10.0868 45.2452 9.88573 45.412 9.68894L45.9638 9.07287C46.152 8.8718 46.3402 8.675 46.5326 8.48248L46.8235 8.19584C47.016 8.01616 47.2127 7.83219 47.4137 7.65251C47.6148 7.47282 47.8115 7.31025 48.0168 7.1434C48.2221 6.97655 48.4445 6.81826 48.6327 6.66424L48.9492 6.4375C49.0519 6.36049 49.1588 6.29204 49.2615 6.21931L49.5822 6.00968L49.9073 5.80433C50.1169 5.67598 50.335 5.55191 50.5574 5.43212L50.8697 5.26527C50.8794 5.26201 50.8899 5.26201 50.8996 5.26527L51.2161 5.1027C51.3231 5.05992 51.4257 5.00858 51.5284 4.95725L51.8876 4.80751L52.2213 4.67488L52.5634 4.55081C52.6789 4.50803 52.7901 4.46953 52.9056 4.4353C53.1366 4.3583 53.3633 4.28985 53.5942 4.23423L53.9321 4.15294C54.1802 4.09875 54.4283 4.05169 54.6763 4.01176C54.8731 3.98181 55.0698 3.96042 55.2666 3.93475L55.6259 3.90481H55.9851L138.923 1.29082H139.685C139.946 1.29082 140.202 1.29082 140.459 1.33788C140.592 1.33788 140.72 1.36356 140.844 1.38067C140.968 1.39778 141.105 1.41061 141.233 1.432L141.61 1.49618L141.986 1.57319L142.354 1.66303L142.687 1.74859L142.76 1.76998C142.863 1.80421 142.97 1.83416 143.072 1.87266C143.175 1.91116 143.359 1.96678 143.5 2.0224L143.787 2.13363C144 2.21919 144.214 2.30903 144.424 2.41171C144.565 2.47161 144.702 2.54434 144.852 2.61707C145.001 2.6898 145.048 2.72402 145.151 2.77964C145.254 2.83525 145.365 2.9037 145.476 2.96788L145.793 3.16468C146.553 3.65477 147.256 4.2288 147.888 4.87596C147.971 4.95154 148.05 5.03152 148.124 5.11554C148.409 5.41238 148.679 5.72367 148.932 6.04818C149.048 6.18936 149.159 6.3391 149.261 6.476C149.713 7.09045 150.115 7.73995 150.463 8.41831C150.532 8.54238 150.596 8.66217 150.651 8.78624C150.78 9.04293 150.9 9.3039 151.015 9.56915C151.075 9.70605 151.13 9.83867 151.182 9.97558C151.28 10.2066 151.37 10.4462 151.451 10.6815C151.494 10.8013 151.537 10.9253 151.575 11.0451C151.648 11.2761 151.725 11.5072 151.789 11.7468C151.823 11.858 151.858 11.9735 151.883 12.0933C151.994 12.4869 152.089 12.889 152.17 13.2997C152.195 13.4081 152.217 13.5151 152.234 13.6206C152.311 14.0484 152.375 14.4463 152.431 14.8656C152.452 15.0281 152.469 15.1821 152.482 15.3362C152.582 16.2624 152.623 17.1941 152.606 18.1256C152.61 18.2197 152.61 18.3223 152.606 18.4293Z" fill="#C7C7C7"/>
<path d="M12.9912 290.365L12.679 290.241C12.4737 290.155 12.2513 290.057 12.0673 289.958C10.8158 289.322 9.68179 288.477 8.71405 287.46L8.50447 287.242C8.32911 287.045 8.15801 286.852 7.98692 286.647L7.76024 286.365C7.37284 285.874 7.01301 285.363 6.6824 284.833L6.50275 284.542C6.32739 284.247 6.16058 283.943 5.99805 283.635C5.94245 283.537 5.89112 283.434 5.8398 283.327L5.66443 282.968L5.49763 282.604C5.45914 282.527 5.42064 282.446 5.38642 282.364C5.3522 282.283 5.2966 282.159 5.25811 282.052C4.99863 281.436 4.76624 280.799 4.56093 280.14C4.52244 280.024 4.48822 279.904 4.454 279.789C4.3428 279.421 4.24442 279.049 4.1546 278.672C4.12038 278.535 4.08616 278.399 4.05622 278.245C3.82588 277.211 3.66159 276.163 3.56435 275.109C3.56435 274.959 3.53441 274.813 3.52586 274.681C3.47025 273.945 3.4446 273.196 3.45315 272.443C3.45315 272.294 3.45315 272.139 3.45315 271.99C3.48365 270.914 3.57504 269.842 3.72688 268.777L39.2957 24.9193C40.7585 14.8827 47.7516 6.48885 55.1554 5.79578C48.4916 6.47601 42.1956 14.0613 40.874 23.1097L4.74057 270.856C3.46597 279.609 7.08445 287.977 12.9912 290.365Z" fill="url(#paint2_linear_1_313)"/>
<path d="M152.05 23.4691L112.7 293.424C112.393 295.553 111.818 297.634 110.989 299.619C110.929 299.764 110.87 299.909 110.805 300.046C110.741 300.183 110.677 300.329 110.609 300.474C110.54 300.62 110.51 300.688 110.459 300.791C110.305 301.103 110.147 301.411 109.984 301.711C109.907 301.843 109.835 301.98 109.762 302.108C109.689 302.237 109.548 302.472 109.437 302.652C109.326 302.831 109.291 302.891 109.214 303.007C109.137 303.122 109.056 303.255 108.971 303.379C108.744 303.717 108.509 304.051 108.261 304.372C108.184 304.474 108.107 304.577 108.025 304.675C107.944 304.774 107.846 304.898 107.752 305.009C107.657 305.12 107.568 305.232 107.478 305.334C107.388 305.437 107.29 305.548 107.196 305.651C107.101 305.753 107.003 305.86 106.905 305.963C106.714 306.168 106.517 306.365 106.314 306.553C106.006 306.849 105.694 307.127 105.369 307.409L105.078 307.64C104.856 307.816 104.651 307.982 104.403 308.149L104.103 308.35C103.774 308.573 103.436 308.778 103.094 308.966C102.983 309.031 102.867 309.09 102.752 309.15C102.521 309.274 102.29 309.386 102.054 309.493C101.939 309.544 101.823 309.6 101.708 309.642C101.336 309.807 100.955 309.95 100.566 310.07C100.463 310.109 100.365 310.134 100.262 310.164C100.16 310.194 100.023 310.237 99.8987 310.267L99.5309 310.357C99.2571 310.417 98.9834 310.472 98.7054 310.515L98.4145 310.558C98.051 310.609 97.6832 310.639 97.3153 310.656H96.9304H96.5026C96.2503 310.656 95.9979 310.635 95.7456 310.614L95.3607 310.571C102.632 311.328 109.454 304.727 110.861 295.062L150.758 21.5311C152.191 11.6912 147.294 3.78512 139.792 3.26318C148.149 3.74234 153.645 12.5298 152.05 23.4691Z" fill="url(#paint3_linear_1_313)"/>
<path d="M112.679 293.415L112.388 295.396C110.72 306.836 102.221 314.378 93.5685 312.239L14.0135 292.585C6.66959 290.771 1.99465 280.906 3.50021 270.57L3.76112 268.781C3.60928 269.846 3.51788 270.919 3.48738 271.994C3.48738 272.144 3.48738 272.298 3.48738 272.448C3.48738 273.201 3.48738 273.949 3.56009 274.685C3.56009 274.831 3.56009 274.976 3.59859 275.113C3.69583 276.168 3.86012 277.215 4.09046 278.249C4.1204 278.386 4.15462 278.523 4.18884 278.677C4.27866 279.053 4.37702 279.425 4.48823 279.793C4.52245 279.909 4.55666 280.029 4.59516 280.144C4.80046 280.803 5.03286 281.44 5.29234 282.057C5.33083 282.163 5.37787 282.266 5.42065 282.369C5.46342 282.471 5.49336 282.531 5.53186 282.608L5.69867 282.972L5.87402 283.331C5.92535 283.438 5.97669 283.541 6.03229 283.639C6.19482 283.947 6.36163 284.251 6.53699 284.546L6.71662 284.837C7.04723 285.367 7.40708 285.879 7.79447 286.369L8.02116 286.651C8.19225 286.857 8.36333 287.049 8.53869 287.246L8.74827 287.464C9.70866 288.478 10.8338 289.321 12.0759 289.958C12.2769 290.057 12.4822 290.155 12.6875 290.241C12.8971 290.326 13.1152 290.408 13.3206 290.485L13.6499 290.596C13.8552 290.66 14.0776 290.72 14.2744 290.771L93.8594 310.288C94.1046 310.348 94.3484 310.4 94.5908 310.442L94.98 310.507C95.1896 310.537 95.4077 310.562 95.6045 310.579H95.7499C96.0022 310.605 96.2546 310.618 96.5069 310.622H96.9347H97.3196C97.6874 310.622 98.0553 310.575 98.4188 310.524L98.7097 310.481C98.9877 310.438 99.2614 310.382 99.5352 310.323L99.903 310.233C100.027 310.203 100.147 310.169 100.267 310.13C100.386 310.092 100.468 310.074 100.57 310.036C100.959 309.916 101.34 309.773 101.712 309.608C101.828 309.565 101.943 309.514 102.059 309.458C102.294 309.351 102.525 309.24 102.756 309.116C102.871 309.061 102.987 308.996 103.098 308.932C103.44 308.74 103.778 308.539 104.107 308.316L104.407 308.115C104.634 307.948 104.86 307.781 105.083 307.606C105.181 307.533 105.275 307.456 105.373 307.375C105.699 307.105 106.011 306.827 106.319 306.519C106.52 306.331 106.721 306.134 106.909 305.929C107.007 305.826 107.106 305.724 107.2 305.617C107.294 305.51 107.392 305.411 107.482 305.3C107.572 305.189 107.67 305.086 107.756 304.975C107.841 304.864 107.94 304.757 108.03 304.641C108.119 304.526 108.188 304.44 108.265 304.337C108.513 304.017 108.748 303.683 108.975 303.345C109.06 303.219 109.142 303.095 109.219 302.973C109.296 302.857 109.368 302.737 109.441 302.618C109.514 302.498 109.659 302.258 109.766 302.074C109.873 301.89 109.916 301.813 109.989 301.676C110.151 301.377 110.309 301.069 110.463 300.757C110.515 300.654 110.566 300.547 110.613 300.44C110.66 300.333 110.746 300.158 110.81 300.012C110.874 299.867 110.934 299.725 110.994 299.584C111.812 297.607 112.378 295.534 112.679 293.415Z" fill="url(#paint4_linear_1_313)"/>
<path d="M152.341 21.4883L152.05 23.4691C153.62 12.7009 148.325 4.01611 140.177 3.27598L139.787 3.24603H139.39C139.142 3.24603 138.898 3.24603 138.641 3.24603L55.8397 5.78728C55.6216 5.78728 55.412 5.78729 55.1896 5.82579C47.7858 6.51886 40.7927 14.9127 39.3299 24.9494L39.5908 23.1611C39.6165 22.9757 39.6464 22.7917 39.6806 22.6092C39.6806 22.4723 39.7234 22.3354 39.7491 22.1814C39.8047 21.8819 39.8603 21.5824 39.9287 21.2872L40.0314 20.8252C40.0527 20.7439 40.0698 20.6669 40.0912 20.5813C40.1126 20.4957 40.1383 20.3888 40.1639 20.2904C40.1896 20.192 40.2452 19.9824 40.288 19.8283C40.3607 19.5588 40.4377 19.2936 40.5189 19.0283C40.5574 18.8957 40.6002 18.7673 40.643 18.639C40.767 18.2454 40.8996 17.8647 41.045 17.4839C41.0921 17.3641 41.1391 17.2443 41.1819 17.1245C41.2247 17.0047 41.2974 16.8293 41.3573 16.6967L41.5112 16.3373C41.554 16.2389 41.5925 16.1405 41.6396 16.0421L41.7935 15.687C41.8363 15.5972 41.8748 15.5116 41.9176 15.4261L42.1058 15.041C42.2127 14.8143 42.3282 14.5918 42.4437 14.3694C42.5035 14.2581 42.5634 14.1469 42.6276 14.0357C42.6917 13.9244 42.7687 13.7747 42.8414 13.6463C43.3397 12.7651 43.891 11.9151 44.4924 11.1008C44.578 10.9896 44.6592 10.8741 44.7491 10.7628C44.8389 10.6516 44.9415 10.5104 45.0442 10.3863C45.2067 10.181 45.3735 9.97992 45.5403 9.78313L46.0921 9.16706C46.2803 8.96599 46.4685 8.76919 46.6609 8.57667L46.9518 8.29431C47.1443 8.10607 47.341 7.92638 47.542 7.7467C47.7431 7.56701 47.9398 7.40444 48.1451 7.23759C48.3504 7.07074 48.5728 6.91245 48.761 6.75843L49.0775 6.53169C49.1802 6.45468 49.2871 6.38623 49.3898 6.3135L49.7106 6.10387L50.0356 5.89852C50.2495 5.77017 50.4633 5.6461 50.6858 5.52631L50.998 5.35946H51.0279L51.3444 5.20545L51.6567 5.05571L52.0159 4.90597L52.3496 4.77335L52.6917 4.64928C52.8029 4.6065 52.9184 4.568 53.0339 4.53377C53.2606 4.45676 53.4916 4.39259 53.7225 4.3327L54.0647 4.25141C54.3085 4.19579 54.5566 4.14873 54.8047 4.11023C55.0527 4.07172 55.1981 4.05461 55.3906 4.03322L55.7542 4.00327H56.1135L138.923 1.29089H139.685C139.946 1.29089 140.202 1.2909 140.459 1.33368L140.844 1.37646L141.229 1.43207C141.357 1.43207 141.485 1.47485 141.61 1.49625L141.982 1.57326L142.349 1.6631L142.683 1.75294H142.756C142.858 1.78717 142.965 1.81712 143.068 1.85562C143.171 1.89412 143.359 1.94974 143.496 2.00535L143.782 2.11658C143.996 2.20215 144.21 2.29627 144.415 2.39467C144.561 2.45457 144.698 2.52729 144.843 2.60002C144.988 2.67275 145.044 2.70698 145.142 2.7626C145.241 2.81821 145.361 2.88239 145.468 2.95084L145.784 3.14763C146.545 3.63639 147.249 4.21053 147.88 4.85891C147.964 4.9334 148.042 5.01344 148.115 5.09849C148.397 5.39369 148.667 5.706 148.923 6.03114C149.039 6.1766 149.15 6.32206 149.257 6.45896C149.706 7.07452 150.106 7.72389 150.455 8.40126C150.523 8.52533 150.583 8.64512 150.643 8.76919C150.775 9.03016 150.895 9.29113 151.006 9.5521C151.066 9.68472 151.122 9.82163 151.173 9.95853C151.272 10.1896 151.357 10.4291 151.443 10.6644C151.485 10.7885 151.524 10.9083 151.567 11.0281C151.639 11.2591 151.716 11.4901 151.781 11.7297C151.815 11.8452 151.849 11.9565 151.875 12.0762C151.986 12.4698 152.08 12.872 152.166 13.2827C152.166 13.3896 152.204 13.4966 152.225 13.6036C152.302 14.0314 152.367 14.4292 152.418 14.8528C152.418 15.0068 152.461 15.1608 152.473 15.3191C152.571 16.2456 152.613 17.177 152.602 18.1085C152.602 18.2069 152.602 18.3096 152.602 18.4165C152.602 18.5235 152.602 18.7502 152.602 18.9171C152.602 19.0839 152.602 19.2508 152.572 19.4219C152.542 19.593 152.546 19.7642 152.533 19.931C152.503 20.2476 152.469 20.5599 152.431 20.8765C152.402 21.0847 152.372 21.2886 152.341 21.4883Z" fill="url(#paint5_linear_1_313)"/>
<path d="M139.39 3.22888C139.146 3.22888 138.898 3.22888 138.641 3.22888L55.8397 5.77014C55.6216 5.77014 55.412 5.77013 55.1896 5.80864C48.4916 6.47604 42.1956 14.0613 40.874 23.1097L4.74055 270.856C3.45741 279.763 7.21275 288.273 13.2949 290.484L13.6242 290.596C13.8295 290.66 14.0519 290.72 14.2487 290.771L93.8337 310.288C94.0789 310.348 94.3227 310.4 94.5651 310.442L94.9543 310.506C102.379 311.542 109.407 304.881 110.84 295.045L150.737 21.5139C152.213 11.5029 147.114 3.49413 139.39 3.22888ZM109.655 294.776C108.372 303.661 101.956 309.873 95.1382 308.932C95.0185 308.932 94.8944 308.898 94.7704 308.872C94.548 308.834 94.3427 308.787 94.0989 308.731L14.501 289.329C14.3043 289.282 14.1118 289.227 13.9193 289.167L13.6242 289.068C8.01686 287.045 4.59085 279.156 5.76707 271.1L41.9176 23.1097C43.1237 14.8399 48.8337 7.88357 54.9971 7.25895H55.0271C55.2238 7.25895 55.4248 7.229 55.6259 7.22472L138.41 4.79471C138.641 4.79471 138.872 4.79471 139.099 4.79471C146.212 5.05995 150.797 12.4099 149.467 21.531L109.655 294.776Z" fill="#404040"/>
<path d="M149.467 21.6423L109.616 294.878C109.376 296.509 108.945 298.105 108.333 299.636C107.885 300.778 107.325 301.873 106.661 302.904C106.528 303.109 106.387 303.311 106.233 303.503C106.019 303.798 105.805 304.081 105.579 304.359C104.964 305.111 104.278 305.801 103.53 306.421C105.171 303.874 106.239 301.001 106.661 298.001L107.119 294.857C107.153 294.673 107.183 294.485 107.208 294.296L146.986 21.6508C147.012 21.4583 147.037 21.2658 147.059 21.0775L147.508 18.0015C147.982 15.0434 147.784 12.0162 146.926 9.14563C149.154 12.2131 150.194 16.6924 149.467 21.6423Z" fill="url(#paint6_linear_1_313)"/>
<path d="M138.825 6.35632H138.769C138.577 6.35632 138.38 6.35632 138.184 6.35632L55.412 8.67083C55.2366 8.67083 55.0613 8.67083 54.8902 8.6965H54.8389H54.8132C49.2529 9.26978 44.0519 15.5844 42.9569 23.0841L6.75511 271.314C5.68582 278.647 8.79958 285.804 13.8937 287.635L14.1375 287.717H14.1674C14.3385 287.768 14.5139 287.819 14.6892 287.862L94.3085 307.182C94.5095 307.229 94.7105 307.268 94.9116 307.302H94.95C95.0488 307.324 95.1488 307.339 95.2494 307.349C101.43 308.205 107.225 302.553 108.415 294.515L148.226 21.5653C149.432 13.2699 145.275 6.60446 138.825 6.35632ZM105.224 293.766C104.909 296.147 103.934 298.392 102.409 300.247C102.332 300.337 102.255 300.419 102.178 300.504C101.948 300.758 101.703 300.999 101.447 301.227C101.225 301.424 100.994 301.612 100.758 301.783C100.466 301.996 100.161 302.189 99.8431 302.361C99.535 302.527 99.2147 302.67 98.885 302.789C98.7225 302.853 98.5599 302.904 98.3931 302.955C98.2286 303.007 98.0616 303.05 97.8927 303.084C97.5531 303.157 97.2086 303.204 96.8619 303.225C96.4422 303.246 96.0215 303.23 95.6044 303.178H95.489H95.4333H95.3948H95.3564H95.2494H95.1382L94.9158 303.131L15.2452 284.08L15.0528 284.029L14.8603 283.969H14.8346H14.8047H14.7577L14.6593 283.93C10.9168 282.6 8.61994 277.346 9.40694 271.951L45.7029 23.0841C46.5027 17.608 50.2752 13.0004 54.3427 12.5383H54.4112H54.5181C54.6306 12.5325 54.7434 12.5325 54.856 12.5383L137.58 10.5147H138.059C138.088 10.5105 138.117 10.5105 138.145 10.5147C138.231 10.5174 138.317 10.5246 138.402 10.5361H138.517L138.744 10.5661C138.838 10.5661 138.928 10.5917 139.018 10.6089C139.147 10.6294 139.276 10.6565 139.402 10.6901L139.475 10.7115L139.783 10.8014L140.211 10.9639C140.329 11.0068 140.445 11.0569 140.557 11.1137C140.682 11.1696 140.803 11.2324 140.921 11.3019C141.162 11.4274 141.394 11.5704 141.614 11.7297C141.816 11.8771 142.011 12.0356 142.195 12.2046C142.235 12.2467 142.276 12.2867 142.32 12.3244L142.546 12.5469C142.645 12.6453 142.734 12.7522 142.829 12.8592C143.008 13.0774 143.184 13.287 143.346 13.5394C143.433 13.6562 143.512 13.7791 143.581 13.9074C143.658 14.0328 143.731 14.1612 143.799 14.2924C144.093 14.829 144.333 15.3937 144.514 15.978C144.612 16.2818 144.689 16.5941 144.762 16.9106C144.835 17.2272 144.89 17.5524 144.937 17.8904C144.959 18.0572 144.976 18.2241 144.993 18.3909C145.023 18.7631 145.044 19.1353 145.044 19.5161C145.044 19.6701 145.044 19.8198 145.044 19.9738C145.03 20.5266 144.983 21.0781 144.903 21.6252L105.224 293.766Z" fill="black"/>
<path d="M67.14 17.0445C67.14 16.9715 67.11 16.9027 67.0972 16.8297C67.0956 16.8039 67.0956 16.7781 67.0972 16.7523C67.1015 16.8511 67.1186 16.95 67.14 17.0445Z" fill="black"/>
<path d="M122.272 15.6357C122.257 15.6635 122.245 15.6921 122.233 15.7213C122.195 15.794 122.161 15.871 122.119 15.948L122.272 15.6357Z" fill="black"/>
<path d="M124.864 10.7671C124.137 10.8313 123.453 11.5543 123.248 12.4784C123.248 12.5597 123.218 12.6409 123.205 12.7222C123.145 13.0559 123.068 13.3896 122.978 13.7191C122.944 13.8346 122.914 13.9458 122.88 14.057C122.837 14.1939 122.794 14.3266 122.747 14.4592C122.7 14.5918 122.662 14.6988 122.619 14.8185L122.585 14.9041L122.551 14.994C122.551 15.0196 122.551 15.041 122.521 15.0667C122.502 15.1056 122.487 15.1456 122.473 15.1865C122.452 15.2293 122.435 15.2763 122.414 15.3191C122.371 15.4303 122.32 15.5373 122.272 15.6442L122.119 15.9566C122.121 15.9707 122.121 15.9852 122.119 15.9993C122.076 16.0892 122.029 16.1747 121.982 16.2603C121.935 16.3459 121.9 16.41 121.858 16.4828C121.846 16.5078 121.834 16.5321 121.819 16.5555L121.751 16.6667C121.723 16.7181 121.693 16.7681 121.661 16.8165V16.8593C121.65 16.8791 121.637 16.8977 121.622 16.9149C121.601 16.9491 121.584 16.9833 121.562 17.0133C121.541 17.0432 121.515 17.0903 121.49 17.1245L121.43 17.2186L121.391 17.27L121.319 17.3812C121.303 17.4072 121.284 17.4316 121.263 17.4539C121.241 17.495 121.216 17.5337 121.186 17.5694V17.5951C121.186 17.5951 121.186 17.5951 121.186 17.6165L121.101 17.7363L121.066 17.7833L120.968 17.9117L120.84 18.07C120.802 18.1264 120.759 18.1794 120.711 18.2283C120.686 18.2628 120.659 18.2956 120.63 18.3267C120.6 18.3643 120.567 18.4001 120.532 18.4336C120.505 18.4708 120.475 18.5052 120.442 18.5363C120.39 18.5979 120.334 18.6564 120.275 18.7117C120.236 18.7604 120.193 18.8062 120.147 18.8486L120.065 18.9299L119.873 19.1139L119.685 19.285L119.569 19.3834C119.527 19.4227 119.483 19.4599 119.437 19.4946L119.308 19.5973L119.249 19.6486L119.03 19.8112C118.975 19.8568 118.916 19.8983 118.855 19.9353C118.785 19.9882 118.713 20.0368 118.637 20.0807L118.551 20.1406L118.389 20.239C118.342 20.2701 118.293 20.2986 118.243 20.3246C118.201 20.3514 118.156 20.3757 118.111 20.3973L118.042 20.4358L117.982 20.4658C117.867 20.5257 117.76 20.5813 117.645 20.6283C117.529 20.6754 117.435 20.7225 117.332 20.761C117.23 20.7995 117.101 20.8508 116.99 20.885C116.762 20.9617 116.529 21.0246 116.293 21.0733C116.199 21.0733 116.101 21.1118 116.002 21.1246H115.942L115.694 21.1503L115.412 21.176H115.215L72.0886 21.8391H72.0074C71.9218 21.8391 71.8363 21.8391 71.7507 21.8391C71.6767 21.8432 71.6024 21.8432 71.5283 21.8391H71.477C71.3914 21.8391 71.3059 21.8134 71.2204 21.8006C71.0206 21.758 70.8235 21.7037 70.6301 21.638C70.5317 21.6081 70.4419 21.5696 70.3435 21.531L70.0912 21.4113C70.0014 21.3685 69.9158 21.3171 69.826 21.2658L69.779 21.2359L69.7276 21.2016C69.6913 21.1838 69.6569 21.1623 69.625 21.1375L69.5138 21.0604L69.394 20.9663C69.372 20.9517 69.3519 20.9345 69.3341 20.915C69.2761 20.8758 69.2217 20.8314 69.1716 20.7824C69.1262 20.7485 69.0846 20.7098 69.0476 20.6668L68.8893 20.5171C68.8744 20.5032 68.8615 20.4874 68.8508 20.4701C68.8163 20.442 68.7848 20.4104 68.7567 20.3759C68.7232 20.3438 68.6917 20.3095 68.6626 20.2733L68.5856 20.1834L68.4616 20.0251L68.3333 19.854L68.282 19.7813C68.2524 19.7401 68.2252 19.6973 68.2007 19.6529C68.1615 19.6005 68.1272 19.5447 68.098 19.4861C68.0761 19.4584 68.0574 19.4282 68.0424 19.3962C68.021 19.362 67.9997 19.3321 67.9826 19.2978C67.9643 19.2678 67.9486 19.2363 67.9355 19.2037C67.9193 19.1799 67.9064 19.154 67.897 19.1267C67.8585 19.0497 67.82 18.977 67.7858 18.9C67.7654 18.8615 67.7482 18.8215 67.7345 18.7802C67.7248 18.7673 67.7176 18.7528 67.7131 18.7374C67.7131 18.7032 67.6832 18.6647 67.666 18.6262V18.6048C67.6679 18.5963 67.6679 18.5875 67.666 18.5791C67.6489 18.5467 67.6359 18.5121 67.6275 18.4764C67.615 18.4533 67.605 18.4289 67.5976 18.4037C67.5976 18.3752 67.5848 18.3409 67.5591 18.301C67.5567 18.2854 67.5567 18.2695 67.5591 18.2539C67.5459 18.2262 67.5345 18.1976 67.5249 18.1684C67.5249 18.1342 67.5035 18.0999 67.4907 18.0614C67.4779 18.0229 67.4907 18.0058 67.4607 17.9716C67.462 17.9531 67.462 17.9345 67.4607 17.916C67.4607 17.916 67.4607 17.8903 67.4607 17.8775C67.4434 17.8314 67.4291 17.7842 67.418 17.7363C67.418 17.7021 67.3966 17.6721 67.388 17.6336C67.39 17.6108 67.39 17.5879 67.388 17.5652C67.388 17.501 67.3538 17.4283 67.3367 17.3555C67.3196 17.2828 67.2982 17.1972 67.2811 17.1159V17.0946C67.2787 17.0804 67.2787 17.0659 67.2811 17.0518C67.2597 16.9576 67.2426 16.8593 67.2298 16.7609C67.2169 16.6625 67.1956 16.5598 67.187 16.4528C67.1849 16.4115 67.1849 16.3701 67.187 16.3288V16.2132C67.1846 16.1919 67.1846 16.1704 67.187 16.1491V16.0635C67.187 16.0378 67.187 16.0079 67.187 15.9865C67.187 15.871 67.187 15.7598 67.1656 15.6442C67.1442 15.5287 67.1656 15.3918 67.1656 15.2635C67.1656 15.1608 67.1656 15.0539 67.1656 14.9426C67.1703 14.628 67.1917 14.3138 67.2298 14.0014C67.2343 13.9226 67.2429 13.8441 67.2554 13.7661C67.3153 12.9105 66.8876 12.2473 66.2503 12.2174L124.864 10.7671Z" fill="black"/>
<path d="M71.7293 21.869C71.8149 21.869 71.9004 21.869 71.986 21.869H71.8406H71.6909H71.524C71.5924 21.8725 71.661 21.8725 71.7293 21.869Z" fill="black"/>
<path d="M115.814 21.1674H115.63C115.575 21.1737 115.519 21.1737 115.463 21.1674H115.305L115.587 21.1417L115.814 21.1674Z" fill="black"/>
<path d="M67.0458 16.4427C67.0479 16.4062 67.0479 16.3695 67.0458 16.333C67.0442 16.3696 67.0442 16.4062 67.0458 16.4427Z" fill="black"/>
<path d="M67.14 17.0445C67.14 16.9715 67.11 16.9027 67.0972 16.8297C67.0956 16.8039 67.0956 16.7781 67.0972 16.7523C67.1015 16.8511 67.1186 16.95 67.14 17.0445Z" fill="black"/>
<path d="M67.6613 18.7283C67.6401 18.6899 67.6231 18.6431 67.6019 18.5962V18.6175C67.6316 18.6558 67.6443 18.6942 67.6613 18.7283Z" fill="black"/>
<path d="M67.8495 19.1182C67.822 19.0729 67.7978 19.0257 67.7771 18.9769C67.7612 18.9493 67.747 18.9207 67.7345 18.8914C67.7728 18.9684 67.8111 19.0411 67.8495 19.1182Z" fill="black"/>
<path d="M67.9395 19.2889C67.9193 19.2596 67.9022 19.2281 67.8885 19.1952C67.9029 19.2278 67.9199 19.2591 67.9395 19.2889Z" fill="black"/>
<path d="M68.5429 20.1749C68.5001 20.1278 68.4573 20.0722 68.4188 20.0209C68.3912 19.9892 68.3669 19.9548 68.3461 19.9182C68.3253 19.8958 68.3066 19.8715 68.2905 19.8455L68.4188 20.0166L68.5429 20.1749Z" fill="black"/>
<path d="M68.6199 20.2646C68.6484 20.3004 68.6792 20.3341 68.7121 20.3658L68.6828 20.3405L68.6199 20.2646Z" fill="black"/>
<path d="M69.0189 20.6604L68.9266 20.5803L68.868 20.5171L69.0189 20.6604Z" fill="black"/>
<path d="M70.071 21.399C69.9979 21.3603 69.9206 21.326 69.8476 21.2787L69.8046 21.2529C69.8777 21.3217 69.9808 21.3732 70.071 21.399Z" fill="black"/>
<path d="M70.3051 21.5353C70.4034 21.5738 70.4933 21.6123 70.5916 21.6423C70.526 21.624 70.4616 21.6011 70.3992 21.5738L70.3051 21.5396L70.181 21.4797C70.1366 21.4618 70.0937 21.4403 70.0527 21.4155L70.3051 21.5353Z" fill="black"/>
<path d="M71.199 21.8262C71.2846 21.8262 71.3701 21.8562 71.4556 21.8647C71.3792 21.8599 71.3034 21.8485 71.229 21.8305C71.229 21.8305 71.2076 21.8305 71.199 21.8305L71.1006 21.8049C71.0326 21.7937 70.9655 21.778 70.8996 21.7578L70.6473 21.6808H70.6088C70.8025 21.7407 70.9996 21.7893 71.199 21.8262Z" fill="black"/>
<path d="M71.7275 21.869H71.63H71.524C71.5918 21.8725 71.6597 21.8725 71.7275 21.869Z" fill="black"/>
<path d="M115.215 21.223H115.125L72.1699 21.8861H72.0887L115.215 21.223Z" fill="black"/>
<path d="M115.566 21.1931L115.815 21.1674H115.695H115.587L115.566 21.1931Z" fill="black"/>
<path d="M116.165 21.1076C116.401 21.0588 116.633 20.996 116.862 20.9193L116.811 20.9407L116.511 21.0263C116.436 21.0508 116.359 21.0694 116.28 21.0819L116.165 21.1118H116.13C116.045 21.1118 115.959 21.1461 115.874 21.1546C115.972 21.1461 116.071 21.1247 116.165 21.1076Z" fill="black"/>
<path d="M117.516 20.6626C117.464 20.6912 117.41 20.7155 117.354 20.7353L117.204 20.7995L117.089 20.8423L116.862 20.9193C116.973 20.8851 117.089 20.8423 117.204 20.7952C117.32 20.7482 117.409 20.7097 117.516 20.6626Z" fill="black"/>
<path d="M117.516 20.6626C117.632 20.6155 117.739 20.5599 117.854 20.5L117.781 20.5428C117.695 20.5873 117.607 20.6273 117.516 20.6626Z" fill="black"/>
<path d="M118.923 19.8362L119.14 19.6743L119.059 19.7425L118.923 19.8362Z" fill="black"/>
<path d="M119.466 19.4048L119.372 19.49L119.334 19.5156C119.38 19.481 119.424 19.444 119.466 19.4048Z" fill="black"/>
<path d="M119.963 18.9513L119.882 19.0326L119.77 19.1395C119.706 19.1952 119.646 19.255 119.582 19.3064L119.77 19.1353L119.963 18.9513Z" fill="black"/>
<path d="M120.611 18.2496C120.586 18.2839 120.558 18.3163 120.527 18.3466C120.556 18.316 120.583 18.2836 120.607 18.2496H120.611Z" fill="black"/>
<path d="M120.876 17.9246L120.804 18.0131L120.746 18.0805L120.871 17.9246H120.876Z" fill="black"/>
<path d="M121.116 17.6079L121.011 17.7479L121.095 17.6291C121.095 17.6291 121.108 17.6164 121.116 17.6079Z" fill="black"/>
<path d="M122.272 15.6357C122.257 15.6635 122.245 15.6921 122.233 15.7213C122.195 15.794 122.161 15.871 122.119 15.948L122.272 15.6357Z" fill="black"/>
<path d="M122.486 15.178L122.435 15.2978C122.435 15.2678 122.452 15.2208 122.486 15.178Z" fill="black"/>
<path d="M107.089 294.857L106.661 298.001C106.248 300.994 105.191 303.862 103.564 306.408C101.105 308.432 98.1536 309.403 95.1297 309.009C95.006 308.994 94.8832 308.973 94.7618 308.945C94.5394 308.911 94.3341 308.864 94.0903 308.808L14.4711 289.398C14.2786 289.351 14.0819 289.295 13.8937 289.235L13.5943 289.137C13.4574 289.086 13.3149 289.03 13.1666 288.97C10.8441 287.999 8.92364 286.005 7.60628 283.408C6.96716 280.638 6.85254 277.772 7.26838 274.959L7.75598 271.609C7.19995 275.434 7.90995 279.207 9.49677 282.014C10.643 284.05 12.2555 285.582 14.1803 286.271C14.2406 286.298 14.3037 286.32 14.3685 286.335H14.3941H14.4241C14.578 286.386 14.7363 286.429 14.8946 286.467L94.5309 305.685C94.7063 305.728 94.8902 305.762 95.0698 305.792H95.1083H95.1382C95.2199 305.811 95.3028 305.824 95.3863 305.83C100.78 306.579 105.865 301.792 107.089 294.857Z" fill="url(#paint7_linear_1_313)"/>
<path d="M149.479 21.561V21.531C150.81 12.4099 146.225 5.05993 139.112 4.79468C138.889 4.79468 138.658 4.79468 138.423 4.79468L55.6387 7.22469C55.4377 7.22469 55.2366 7.22469 55.0399 7.25892H55.01C54.7576 7.28459 54.5053 7.31881 54.2572 7.36587C51.7165 7.83648 49.2871 9.35952 47.2555 11.5756C45.8529 14.1033 44.9211 16.8648 44.5053 19.7256L44.0177 23.0797C44.5241 19.422 46.1566 16.0128 48.6883 13.3254C50.4334 11.55 52.5035 10.382 54.6464 10.1553H54.6977H54.7704C54.933 10.1553 55.0784 10.1339 55.1981 10.1339L137.953 7.92632H138.53C144.167 8.15306 147.85 13.8474 147.037 21.0005L147.486 17.9245C147.957 14.9676 147.758 11.9428 146.905 9.07288C149.167 12.1275 150.207 16.5897 149.479 21.561Z" fill="url(#paint8_linear_1_313)"/>
<path d="M7.61053 283.344C5.85262 279.96 5.09556 275.554 5.74569 271.083L41.9176 23.1097C42.5122 18.8184 44.3636 14.7992 47.2384 11.5586C45.8391 14.0873 44.9088 16.8485 44.4924 19.7086L7.28118 274.882C6.86042 277.698 6.97214 280.569 7.61053 283.344Z" fill="url(#paint9_linear_1_313)"/>
<path d="M149.484 21.5695L109.655 294.805C109.414 296.437 108.984 298.035 108.372 299.567C107.918 300.706 107.354 301.798 106.687 302.827C106.554 303.032 106.413 303.229 106.259 303.426C106.049 303.721 105.831 304.004 105.604 304.282C104.988 305.047 104.294 305.747 103.534 306.369V306.344C105.172 303.797 106.238 300.927 106.661 297.929L147.499 17.9288C147.97 14.9718 147.771 11.947 146.917 9.07715C149.172 12.1403 150.211 16.5982 149.484 21.5695Z" fill="url(#paint10_linear_1_313)"/>
<path d="M100.314 14.3565L88.2392 14.6174C87.9355 14.6174 87.7388 14.3094 87.8115 13.9115L87.8628 13.5436C87.8749 13.3669 87.9453 13.1992 88.0629 13.0668C88.1806 12.9344 88.3389 12.8448 88.5129 12.812L100.592 12.5297C100.9 12.5297 101.105 12.842 101.045 13.2441L100.989 13.6163C100.976 13.7977 100.903 13.9695 100.78 14.1038C100.657 14.2381 100.493 14.3271 100.314 14.3565Z" fill="url(#paint11_linear_1_313)"/>
<path d="M144.924 21.5995L105.224 293.766C104.909 296.147 103.934 298.392 102.409 300.247C102.332 300.337 102.255 300.418 102.178 300.504C101.939 300.761 101.699 301.005 101.447 301.227C101.195 301.449 100.994 301.612 100.758 301.783C100.466 301.996 100.161 302.189 99.8431 302.361C99.5337 302.525 99.2136 302.668 98.885 302.789C98.7225 302.848 98.56 302.9 98.3931 302.955C98.2306 303.007 98.0595 303.045 97.8927 303.084C97.5528 303.154 97.2084 303.202 96.8619 303.225C96.4422 303.245 96.0215 303.23 95.6045 303.178H95.489H95.4334H95.3778L95.2623 303.152H95.1511L94.9287 303.105L15.2453 284.08L15.0528 284.029L14.8603 283.973H14.809H14.7833L14.6849 283.934C10.9424 282.604 8.64561 277.35 9.4326 271.956L45.7285 23.0883C46.5284 17.6122 50.3008 13.0046 54.3684 12.5425H54.4368H54.5438C54.6563 12.5366 54.7691 12.5366 54.8817 12.5425L66.0792 12.2687C66.7165 12.2986 67.1443 12.9575 67.0844 13.8174C67.0844 13.8773 67.0844 13.9372 67.063 13.9971V14.0228C67.063 14.0228 67.063 14.0228 67.063 14.0527C67.0249 14.3651 67.0035 14.6793 66.9988 14.9939C66.9988 15.1051 66.9988 15.2121 66.9988 15.3148C66.9988 15.4431 66.9988 15.5715 66.9988 15.6955C66.9988 15.8196 66.9988 15.9223 67.0202 16.0378C67.0202 16.0378 67.0202 16.0891 67.0202 16.1148V16.2004C67.0178 16.2217 67.0178 16.2432 67.0202 16.2645V16.3801C67.0223 16.4171 67.0223 16.4542 67.0202 16.4913C67.0202 16.5982 67.0459 16.6966 67.063 16.7993C67.0801 16.902 67.0929 16.9961 67.1143 17.0902C67.1119 17.1044 67.1119 17.1189 67.1143 17.133V17.1202C67.1143 17.2015 67.1528 17.2828 67.1699 17.3598C67.187 17.4368 67.2041 17.5052 67.2212 17.5694C67.2232 17.5922 67.2232 17.6151 67.2212 17.6378C67.2212 17.6763 67.2212 17.7063 67.2512 17.7405C67.2623 17.7885 67.2766 17.8356 67.294 17.8817C67.294 17.8817 67.294 17.9074 67.294 17.9202C67.2952 17.9387 67.2952 17.9573 67.294 17.9758C67.294 18.01 67.3153 18.04 67.3239 18.0657C67.3325 18.0913 67.3453 18.1384 67.3581 18.1726C67.3677 18.2018 67.3791 18.2304 67.3923 18.2582C67.3899 18.2738 67.3899 18.2896 67.3923 18.3052C67.3923 18.3423 67.4052 18.3765 67.4308 18.4079C67.4382 18.4331 67.4482 18.4575 67.4608 18.4806C67.4691 18.5164 67.4821 18.5509 67.4993 18.5833C67.5011 18.5918 67.5011 18.6005 67.4993 18.609V18.6304C67.4993 18.6689 67.5292 18.7074 67.5463 18.7416C67.5508 18.7571 67.558 18.7716 67.5677 18.7844C67.5814 18.8257 67.5986 18.8658 67.619 18.9042C67.6292 18.9338 67.6421 18.9625 67.6575 18.9898C67.6783 19.0385 67.7027 19.0857 67.7302 19.1309C67.7396 19.1582 67.7525 19.1841 67.7687 19.2079C67.7818 19.2405 67.7976 19.272 67.8158 19.3021C67.8158 19.3363 67.8543 19.3662 67.8757 19.4005C67.8907 19.4325 67.9093 19.4626 67.9313 19.4903C67.9604 19.5489 67.9948 19.6047 68.0339 19.6572C68.0584 19.7015 68.0856 19.7444 68.1152 19.7855L68.1665 19.8582C68.1826 19.8842 68.2012 19.9086 68.2221 19.931C68.244 19.9655 68.2683 19.9983 68.2948 20.0294C68.3333 20.0807 68.3761 20.1363 68.4188 20.1834L68.4958 20.2732L68.56 20.3502L68.5899 20.3759C68.618 20.4104 68.6495 20.4419 68.684 20.47C68.6947 20.4874 68.7076 20.5032 68.7225 20.5171L68.7824 20.5812L68.8765 20.6625C68.9135 20.7054 68.9551 20.7442 69.0005 20.778C69.0506 20.8271 69.105 20.8714 69.1631 20.9107C69.1808 20.9302 69.201 20.9474 69.223 20.962L69.3427 21.0561L69.4539 21.1331C69.4859 21.1579 69.5203 21.1794 69.5566 21.1973C69.5712 21.2121 69.5887 21.2237 69.6079 21.2315L69.655 21.2615C69.6692 21.2725 69.685 21.2812 69.702 21.2872C69.7747 21.3342 69.8517 21.3684 69.9244 21.4069C69.9654 21.4317 70.0083 21.4532 70.0527 21.4711L70.1768 21.5267L70.2709 21.561C70.3334 21.5882 70.3977 21.6111 70.4633 21.6294H70.5018L70.7542 21.7064C70.82 21.7266 70.8872 21.7423 70.9552 21.7535H71.0536C71.0536 21.7535 71.0536 21.7535 71.0835 21.7535C71.1579 21.7714 71.2338 21.7829 71.3102 21.7877H71.3615H71.4685H71.5283H71.678C71.7535 21.7942 71.8293 21.7942 71.9047 21.7877H71.986L114.941 21.1246H115.215C115.298 21.131 115.381 21.131 115.463 21.1246C115.519 21.1309 115.575 21.1309 115.63 21.1246H115.694H115.814H115.874C115.959 21.1246 116.045 21.0989 116.131 21.0818H116.165L116.28 21.0561C116.359 21.0437 116.436 21.0251 116.511 21.0005L116.811 20.9149L116.862 20.8936L117.089 20.8165L117.204 20.7738C117.255 20.7575 117.305 20.7375 117.354 20.7139C117.41 20.694 117.464 20.6697 117.516 20.6411C117.606 20.6128 117.695 20.58 117.781 20.5427C117.803 20.5354 117.823 20.5253 117.841 20.5128L117.901 20.4828L117.97 20.4443C118.015 20.4227 118.06 20.3984 118.102 20.3716C118.152 20.3456 118.201 20.3171 118.248 20.286L118.41 20.1876L118.496 20.1278C118.571 20.0838 118.644 20.0352 118.714 19.9823C118.775 19.9453 118.834 19.9038 118.889 19.8582L119.018 19.7684L119.099 19.6999L119.159 19.6486L119.287 19.5459L119.326 19.5203L119.42 19.4347L119.535 19.3363C119.599 19.2849 119.659 19.2251 119.723 19.1694L119.835 19.0668L119.916 18.9855L119.997 18.9042C120.043 18.8617 120.086 18.816 120.125 18.7673C120.184 18.712 120.24 18.6535 120.292 18.5919C120.326 18.5608 120.356 18.5264 120.382 18.4892C120.417 18.4556 120.45 18.4199 120.48 18.3822C120.51 18.3512 120.537 18.3184 120.562 18.2839C120.609 18.235 120.652 18.182 120.69 18.1256L120.75 18.0571C120.775 18.029 120.798 17.999 120.818 17.9673L120.917 17.8389L120.951 17.7919L121.036 17.6721C121.036 17.6721 121.036 17.6721 121.036 17.6507V17.625C121.066 17.5892 121.092 17.5505 121.113 17.5095C121.134 17.4871 121.153 17.4628 121.169 17.4368L121.242 17.3255L121.28 17.2742L121.34 17.1801C121.366 17.1458 121.387 17.1073 121.413 17.0688C121.438 17.0303 121.451 17.0047 121.473 16.9704C121.487 16.9533 121.5 16.9346 121.511 16.9148V16.872C121.544 16.8237 121.574 16.7737 121.601 16.7223L121.669 16.6111C121.684 16.5877 121.697 16.5634 121.708 16.5383C121.751 16.4656 121.793 16.3929 121.832 16.3159C121.87 16.2389 121.926 16.1447 121.969 16.0549C121.971 16.0407 121.971 16.0263 121.969 16.0121L122.123 15.6998C122.17 15.5929 122.221 15.4859 122.264 15.3747L122.315 15.2549C122.328 15.214 122.344 15.174 122.362 15.1351C122.362 15.1094 122.362 15.088 122.392 15.0624L122.426 14.9725L122.461 14.887C122.503 14.7672 122.551 14.6474 122.589 14.5276C122.628 14.4078 122.679 14.2623 122.722 14.1254C122.756 14.0142 122.786 13.903 122.82 13.7875C122.91 13.458 122.987 13.1243 123.047 12.7906C123.049 12.7793 123.049 12.7677 123.047 12.7564V12.7307C123.047 12.6709 123.047 12.6067 123.077 12.5468C123.282 11.6355 123.966 10.9125 124.693 10.8355L137.409 10.5232H138C138.077 10.5261 138.154 10.5332 138.231 10.5446H138.346L138.573 10.5745L138.846 10.6173L139.231 10.6986L139.304 10.72L139.612 10.8098L140.04 10.9724L140.386 11.1221C140.51 11.182 140.634 11.2462 140.75 11.3104C140.989 11.44 141.22 11.5828 141.443 11.7382C141.639 11.8879 141.836 12.042 142.024 12.2131C142.064 12.2552 142.105 12.2951 142.148 12.3329L142.375 12.5553L142.657 12.8676C142.837 13.0858 143.012 13.2955 143.175 13.5479C143.256 13.6677 143.337 13.7917 143.41 13.9158C143.483 14.0399 143.56 14.1682 143.628 14.3008C143.918 14.8395 144.157 15.4038 144.343 15.9865C144.441 16.2902 144.518 16.6025 144.591 16.9191C144.663 17.2357 144.719 17.5608 144.766 17.8988C144.787 18.0657 144.805 18.2325 144.822 18.3994C144.852 18.7716 144.873 19.1438 144.873 19.5245C144.873 19.6743 144.873 19.8283 144.873 19.9823C144.922 20.5199 144.939 21.0599 144.924 21.5995Z" fill="url(#paint12_linear_1_313)"/>
</g>
<defs>
<linearGradient id="paint0_linear_1_313" x1="99.5223" y1="157.034" x2="162.388" y2="157.034" gradientUnits="userSpaceOnUse">
<stop stop-color="#333333"/>
<stop offset="0.37" stop-color="#848484"/>
<stop offset="0.66" stop-color="#BFBFBF"/>
<stop offset="0.88" stop-color="#E3E3E3"/>
<stop offset="1" stop-color="#F1F1F1"/>
</linearGradient>
<linearGradient id="paint1_linear_1_313" x1="77.5463" y1="312.963" x2="81.81" y2="-0.138137" gradientUnits="userSpaceOnUse">
<stop stop-color="#F1F1F1"/>
<stop offset="0.43" stop-color="#EFEFEF"/>
<stop offset="0.62" stop-color="#E8E8E8"/>
<stop offset="0.76" stop-color="#DBDBDB"/>
<stop offset="0.88" stop-color="#C9C9C9"/>
<stop offset="0.98" stop-color="#B2B2B2"/>
<stop offset="1" stop-color="#ACACAC"/>
</linearGradient>
<linearGradient id="paint2_linear_1_313" x1="21.9282" y1="145.684" x2="23.5076" y2="145.908" gradientUnits="userSpaceOnUse">
<stop stop-color="#666666"/>
<stop offset="0.06" stop-color="#727272"/>
<stop offset="0.33" stop-color="#A8A8A8"/>
<stop offset="0.57" stop-color="#D0D0D0"/>
<stop offset="0.76" stop-color="#E8E8E8"/>
<stop offset="0.87" stop-color="#F1F1F1"/>
<stop offset="0.95" stop-color="#F7F7F7"/>
<stop offset="1" stop-color="white"/>
</linearGradient>
<linearGradient id="paint3_linear_1_313" x1="131.834" y1="158.099" x2="133.65" y2="158.355" gradientUnits="userSpaceOnUse">
<stop stop-color="white"/>
<stop offset="0.05" stop-color="#F7F7F7"/>
<stop offset="0.13" stop-color="#F1F1F1"/>
<stop offset="0.24" stop-color="#E8E8E8"/>
<stop offset="0.43" stop-color="#D0D0D0"/>
<stop offset="0.67" stop-color="#A8A8A8"/>
<stop offset="0.94" stop-color="#727272"/>
<stop offset="1" stop-color="#666666"/>
</linearGradient>
<linearGradient id="paint4_linear_1_313" x1="55.453" y1="306.098" x2="58.8606" y2="282.007" gradientUnits="userSpaceOnUse">
<stop stop-color="#F1F1F1"/>
<stop offset="0.12" stop-color="#E3E3E3"/>
<stop offset="0.34" stop-color="#BFBFBF"/>
<stop offset="0.63" stop-color="#848484"/>
<stop offset="1" stop-color="#333333"/>
</linearGradient>
<linearGradient id="paint5_linear_1_313" x1="96.211" y1="23.3697" x2="101.491" y2="-13.9567" gradientUnits="userSpaceOnUse">
<stop stop-color="#333333"/>
<stop offset="0.07" stop-color="#4C4C4C"/>
<stop offset="0.25" stop-color="#828282"/>
<stop offset="0.42" stop-color="#AFAFAF"/>
<stop offset="0.59" stop-color="#D2D2D2"/>
<stop offset="0.74" stop-color="#EBEBEB"/>
<stop offset="0.89" stop-color="#FAFAFA"/>
<stop offset="1" stop-color="white"/>
</linearGradient>
<linearGradient id="paint6_linear_1_313" x1="125.467" y1="156.999" x2="130.617" y2="157.727" gradientUnits="userSpaceOnUse">
<stop stop-color="#F0F0F0"/>
<stop offset="0.14" stop-color="#B7B7B7"/>
<stop offset="0.27" stop-color="#888888"/>
<stop offset="0.4" stop-color="#636363"/>
<stop offset="0.51" stop-color="#494949"/>
<stop offset="0.62" stop-color="#393939"/>
<stop offset="0.7" stop-color="#333333"/>
</linearGradient>
<linearGradient id="paint7_linear_1_313" x1="6.87415" y1="283.264" x2="107.505" y2="297.491" gradientUnits="userSpaceOnUse">
<stop/>
<stop offset="0.1" stop-color="#141414"/>
<stop offset="0.26" stop-color="#2C2C2C"/>
<stop offset="0.4" stop-color="#3B3B3B"/>
<stop offset="0.52" stop-color="#404040"/>
<stop offset="0.63" stop-color="#393939"/>
<stop offset="0.79" stop-color="#242424"/>
<stop offset="0.99" stop-color="#020202"/>
<stop offset="1"/>
</linearGradient>
<linearGradient id="paint8_linear_1_313" x1="46.723" y1="6.84372" x2="149.895" y2="21.4301" gradientUnits="userSpaceOnUse">
<stop/>
<stop offset="0.1" stop-color="#141414"/>
<stop offset="0.26" stop-color="#2C2C2C"/>
<stop offset="0.4" stop-color="#3B3B3B"/>
<stop offset="0.52" stop-color="#404040"/>
<stop offset="0.63" stop-color="#393939"/>
<stop offset="0.79" stop-color="#242424"/>
<stop offset="0.99" stop-color="#020202"/>
<stop offset="1"/>
</linearGradient>
<linearGradient id="paint9_linear_1_313" x1="24.1614" y1="146.324" x2="26.7317" y2="146.688" gradientUnits="userSpaceOnUse">
<stop stop-color="#404040"/>
<stop offset="0.64" stop-color="#1A1A1A"/>
<stop offset="1" stop-color="#0A0A0A"/>
</linearGradient>
<linearGradient id="paint10_linear_1_313" x1="125.467" y1="156.943" x2="130.633" y2="157.673" gradientUnits="userSpaceOnUse">
<stop stop-color="#0A0A0A"/>
<stop offset="0.36" stop-color="#1A1A1A"/>
<stop offset="1" stop-color="#404040"/>
</linearGradient>
<linearGradient id="paint11_linear_1_313" x1="88.4627" y1="12.0047" x2="101.34" y2="13.8252" gradientUnits="userSpaceOnUse">
<stop stop-color="#333333"/>
<stop offset="0.09" stop-color="#2B2B2B"/>
<stop offset="0.29" stop-color="#1E1E1E"/>
<stop offset="0.48" stop-color="#1A1A1A"/>
<stop offset="0.79" stop-color="#1C1C1C"/>
<stop offset="0.9" stop-color="#232323"/>
<stop offset="0.98" stop-color="#2E2E2E"/>
<stop offset="1" stop-color="#333333"/>
</linearGradient>
<linearGradient id="paint12_linear_1_313" x1="4.32893" y1="48.7141" x2="160.755" y2="256.618" gradientUnits="userSpaceOnUse">
<stop stop-color="#F2F3F4"/>
<stop offset="0.36" stop-color="#EDEEEF"/>
<stop offset="0.78" stop-color="#DFE0E0"/>
<stop offset="1" stop-color="#D5D6D6"/>
</linearGradient>
<clipPath id="clip0_1_313">
<rect width="161.925" height="312.698" fill="white" transform="translate(0.463409 0.66626)"/>
</clipPath>
</defs>
</svg>
