<svg width="13" height="13" viewBox="0 0 13 13" fill="none" xmlns="http://www.w3.org/2000/svg">
<path fill-rule="evenodd" clip-rule="evenodd" d="M1.75549 5.35517C1.75549 3.05523 3.67743 1.19629 6.00222 1.19629C8.33355 1.19629 10.2555 3.05523 10.2555 5.35517C10.2555 6.51413 9.834 7.5901 9.14024 8.50208C8.3749 9.50805 7.43157 10.3845 6.36976 11.0725C6.12675 11.2315 5.90743 11.2435 5.64072 11.0725C4.57286 10.3845 3.62954 9.50805 2.87074 8.50208C2.17648 7.5901 1.75549 6.51413 1.75549 5.35517ZM4.60261 5.48466C4.60261 6.25514 5.23132 6.86112 6.00222 6.86112C6.77361 6.86112 7.40838 6.25514 7.40838 5.48466C7.40838 4.72019 6.77361 4.08471 6.00222 4.08471C5.23132 4.08471 4.60261 4.72019 4.60261 5.48466Z" fill="#42A7C3"/>
</svg>
