<svg width="30" height="29" viewBox="0 0 30 29" fill="none" xmlns="http://www.w3.org/2000/svg">
<path fill-rule="evenodd" clip-rule="evenodd" d="M15.4786 0C7.47337 0 0.98291 6.49046 0.98291 14.4957C0.98291 22.501 7.47337 28.9915 15.4786 28.9915C23.4839 28.9915 29.9744 22.501 29.9744 14.4957C29.9744 6.49046 23.4839 0 15.4786 0ZM15.4789 2.41597C22.1397 2.41597 27.5587 7.83496 27.5587 14.4957C27.5587 21.1565 22.1397 26.5755 15.4789 26.5755C8.81814 26.5755 3.39916 21.1565 3.39916 14.4957C3.39916 7.83496 8.81814 2.41597 15.4789 2.41597ZM18.408 8.59719C17.6434 8.56216 17.4139 8.55491 15.4787 8.55491C13.5435 8.55491 13.314 8.56095 12.5506 8.59598C10.584 8.68538 9.66833 9.61672 9.57894 11.5676C9.54512 12.331 9.53666 12.5606 9.53666 14.4957C9.53666 16.4309 9.54512 16.6604 9.57894 17.4239C9.66954 19.3699 10.5816 20.3049 12.5506 20.3955C13.314 20.4305 13.5435 20.4378 15.4787 20.4378C17.4151 20.4378 17.6434 20.4293 18.408 20.3955C20.3746 20.3061 21.2891 19.3723 21.3797 17.4239C21.4135 16.6604 21.4207 16.4309 21.4207 14.4957C21.4207 12.5606 21.4135 12.3323 21.3797 11.5676C21.2891 9.61793 20.3734 8.68658 18.408 8.59719ZM15.4786 7.24786C13.5096 7.24786 13.2644 7.25632 12.4901 7.29256C9.85671 7.41336 8.39506 8.8738 8.27426 11.5072C8.23923 12.2815 8.23077 12.5279 8.23077 14.4957C8.23077 16.4647 8.23923 16.7112 8.27426 17.4843C8.39506 20.1164 9.85671 21.5793 12.4901 21.7001C13.2644 21.7351 13.5096 21.7436 15.4786 21.7436C17.4476 21.7436 17.6941 21.7351 18.4684 21.7001C21.0969 21.5793 22.5646 20.1189 22.683 17.4843C22.718 16.7112 22.7265 16.4647 22.7265 14.4957C22.7265 12.5279 22.718 12.2815 22.683 11.5072C22.5646 8.87743 21.1018 7.41215 18.4684 7.29256C17.6941 7.25632 17.4476 7.24786 15.4786 7.24786ZM11.7565 14.4958C11.7565 12.4398 13.4235 10.774 15.4783 10.774C17.533 10.774 19.2001 12.441 19.2001 14.4958C19.2001 16.5517 17.533 18.2175 15.4783 18.2175C13.4235 18.2175 11.7565 16.5517 11.7565 14.4958ZM15.4783 16.9117C14.1435 16.9117 13.0624 15.8305 13.0624 14.4957C13.0624 13.1621 14.1435 12.0798 15.4783 12.0798C16.8119 12.0798 17.8955 13.1609 17.8955 14.4957C17.8955 15.8305 16.8119 16.9117 15.4783 16.9117ZM18.4771 10.6278C18.4771 10.147 18.8672 9.75806 19.3468 9.75806C19.8288 9.75806 20.2177 10.147 20.2177 10.6278C20.2177 11.1086 19.8276 11.4975 19.3468 11.4975C18.866 11.4975 18.4771 11.1074 18.4771 10.6278Z" fill="#979797"/>
</svg>
