<svg width="214" height="43" viewBox="0 0 214 43" fill="none" xmlns="http://www.w3.org/2000/svg">
<rect width="42.6875" height="42.482" rx="21.241" fill="white"/>
<path d="M39.8417 21.5754C39.8417 11.6672 31.5603 3.6355 21.3461 3.6355C11.1272 3.63773 2.84583 11.6672 2.84583 21.5777C2.84583 30.5298 9.61059 37.9509 18.4515 39.297V26.7613H13.7582V21.5777H18.4561V17.622C18.4561 13.127 21.2189 10.6443 25.4428 10.6443C27.4681 10.6443 29.5835 10.9942 29.5835 10.9942V15.4068H27.2508C24.955 15.4068 24.2383 16.7907 24.2383 18.2103V21.5754H29.3662L28.5478 26.7591H24.236V39.2948C33.0769 37.9487 39.8417 30.5276 39.8417 21.5754Z" fill="#3FA0BB"/>
<rect x="56.9167" width="42.6875" height="42.482" rx="21.241" fill="white"/>
<path d="M78.2604 3.6355C68.0453 3.6355 59.7625 11.6195 59.7625 21.4662C59.7625 31.313 68.0453 39.297 78.2604 39.297C88.4756 39.297 96.7583 31.313 96.7583 21.4662C96.7583 11.6195 88.4756 3.6355 78.2604 3.6355ZM87.1502 17.0762C87.1625 17.2633 87.1625 17.4583 87.1625 17.6494C87.1625 23.4921 82.5463 30.2224 74.1108 30.2224C71.5095 30.2224 69.0982 29.4941 67.0667 28.2403C67.4383 28.2801 67.7934 28.2961 68.1733 28.2961C70.3204 28.2961 72.294 27.5956 73.8672 26.4095C71.8522 26.3697 70.1593 25.0961 69.5813 23.3448C70.2873 23.4443 70.9232 23.4443 71.6499 23.2652C70.6124 23.0621 69.6799 22.5189 69.0107 21.7281C68.3416 20.9372 67.9771 19.9475 67.9792 18.927V18.8712C68.5862 19.2016 69.3005 19.4046 70.0478 19.4324C69.4196 19.0288 68.9044 18.482 68.5478 17.8405C68.1913 17.199 68.0045 16.4826 68.004 15.7548C68.004 14.931 68.227 14.1787 68.6275 13.526C69.7791 14.8925 71.2161 16.0101 72.8451 16.8062C74.4741 17.6023 76.2587 18.0591 78.0829 18.1469C77.4346 15.1419 79.7634 12.7101 82.5628 12.7101C83.8841 12.7101 85.0733 13.2434 85.9115 14.1031C86.9478 13.916 87.9388 13.5419 88.8224 13.0404C88.4797 14.0633 87.7613 14.927 86.8075 15.4723C87.7324 15.3767 88.6242 15.13 89.45 14.7837C88.8265 15.6673 88.0462 16.4514 87.1502 17.0762Z" fill="#3FA0BB"/>
<rect x="113.833" width="42.6875" height="42.482" rx="21.241" fill="white"/>
<rect x="170.75" width="42.6875" height="42.482" rx="21.241" fill="white"/>
<path d="M135.177 3.6355C124.961 3.6355 116.679 11.6185 116.679 21.4662C116.679 31.314 124.961 39.297 135.177 39.297C145.393 39.297 153.675 31.314 153.675 21.4662C153.675 11.6185 145.393 3.6355 135.177 3.6355ZM130.649 28.8567H126.903V17.237H130.649V28.8567ZM128.753 15.8106C127.57 15.8106 126.805 15.0026 126.805 14.0033C126.805 12.9836 127.593 12.1998 128.801 12.1998C130.009 12.1998 130.749 12.9836 130.772 14.0033C130.772 15.0026 130.009 15.8106 128.753 15.8106ZM144.33 28.8567H140.584V22.4172C140.584 20.9183 140.04 19.9005 138.686 19.9005C137.651 19.9005 137.037 20.5896 136.765 21.2527C136.665 21.4885 136.64 21.8229 136.64 22.1553V28.8549H132.892V20.9425C132.892 19.4919 132.844 18.279 132.794 17.2352H136.048L136.22 18.8492H136.295C136.788 18.0914 137.996 16.9733 140.017 16.9733C142.482 16.9733 144.33 18.565 144.33 21.9863V28.8567V28.8567Z" fill="#3FA0BB"/>
<path d="M208.587 15.8248C208.569 14.481 208.307 13.1506 207.815 11.893C207.388 10.8323 206.736 9.86896 205.9 9.06458C205.064 8.26019 204.063 7.63244 202.961 7.22143C201.671 6.75544 200.308 6.50347 198.93 6.47625C197.157 6.39995 196.594 6.37866 192.092 6.37866C187.59 6.37866 187.012 6.37866 185.252 6.47625C183.875 6.50367 182.513 6.75563 181.223 7.22143C180.121 7.63215 179.12 8.2598 178.284 9.06422C177.448 9.86865 176.796 10.8321 176.369 11.893C175.884 13.1335 175.622 14.4446 175.596 15.7698C175.517 17.4784 175.493 18.0195 175.493 22.3522C175.493 26.6849 175.493 27.2385 175.596 28.9347C175.624 30.2618 175.884 31.5712 176.369 32.815C176.796 33.8756 177.449 34.8387 178.285 35.6427C179.121 36.4468 180.123 37.0742 181.225 37.4848C182.511 37.9695 183.873 38.2395 185.254 38.2832C187.029 38.3595 187.591 38.3826 192.094 38.3826C196.596 38.3826 197.173 38.3826 198.934 38.2832C200.311 38.2571 201.674 38.0057 202.964 37.5398C204.066 37.1283 205.067 36.5004 205.903 35.6961C206.739 34.8918 207.391 33.9287 207.819 32.8682C208.304 31.6262 208.564 30.3168 208.591 28.9879C208.67 27.2811 208.694 26.74 208.694 22.4055C208.691 18.0727 208.691 17.5227 208.587 15.8248ZM192.081 30.5457C187.372 30.5457 183.557 26.8748 183.557 22.3434C183.557 17.8119 187.372 14.141 192.081 14.141C194.341 14.141 196.509 15.0052 198.108 16.5434C199.706 18.0817 200.604 20.168 200.604 22.3434C200.604 24.5188 199.706 26.6051 198.108 28.1433C196.509 29.6815 194.341 30.5457 192.081 30.5457ZM200.944 15.7502C200.682 15.7505 200.424 15.7012 200.183 15.6051C199.941 15.5091 199.722 15.3682 199.538 15.1906C199.353 15.0129 199.207 14.802 199.107 14.5698C199.007 14.3377 198.956 14.0888 198.956 13.8376C198.956 13.5866 199.007 13.338 199.107 13.106C199.207 12.8741 199.353 12.6633 199.538 12.4858C199.722 12.3083 199.941 12.1675 200.182 12.0714C200.423 11.9753 200.682 11.9259 200.943 11.9259C201.203 11.9259 201.462 11.9753 201.703 12.0714C201.944 12.1675 202.163 12.3083 202.347 12.4858C202.532 12.6633 202.678 12.8741 202.778 13.106C202.878 13.338 202.929 13.5866 202.929 13.8376C202.929 14.8951 202.041 15.7502 200.944 15.7502Z" fill="#3FA0BB"/>
<path d="M192.094 29.2387C196.023 29.2387 199.208 26.1682 199.208 22.3807C199.208 18.5931 196.023 15.5227 192.094 15.5227C188.164 15.5227 184.979 18.5931 184.979 22.3807C184.979 26.1682 188.164 29.2387 192.094 29.2387Z" fill="#3FA0BB"/>
</svg>
