<svg width="30" height="29" viewBox="0 0 30 29" fill="none" xmlns="http://www.w3.org/2000/svg">
<path fill-rule="evenodd" clip-rule="evenodd" d="M15.4872 0C7.48192 0 0.991455 6.49046 0.991455 14.4957C0.991455 22.501 7.48192 28.9915 15.4872 28.9915C23.4924 28.9915 29.9829 22.501 29.9829 14.4957C29.9829 6.49046 23.4924 0 15.4872 0ZM15.4875 2.41597C22.1483 2.41597 27.5672 7.83496 27.5672 14.4957C27.5672 21.1565 22.1483 26.5755 15.4875 26.5755C8.82669 26.5755 3.4077 21.1565 3.4077 14.4957C3.4077 7.83496 8.82669 2.41597 15.4875 2.41597ZM21.6312 11.0723C22.2328 10.9998 22.8066 10.8404 23.3393 10.6036C22.9407 11.2004 22.437 11.7246 21.8547 12.1426C22.0432 16.3258 18.9242 20.9898 13.4013 20.9898C11.7222 20.9898 10.1603 20.4982 8.8436 19.6538C10.4224 19.8398 11.9964 19.4013 13.2491 18.4204C11.9493 18.3963 10.8488 17.5374 10.4707 16.356C10.937 16.4454 11.3961 16.4188 11.814 16.3053C10.3838 16.0178 9.39565 14.7289 9.42826 13.3518C9.82931 13.574 10.2871 13.7081 10.7739 13.7238C9.45001 12.8384 9.07433 11.0892 9.85347 9.75321C11.32 11.5519 13.5124 12.7357 15.9827 12.8601C15.5491 10.9998 16.96 9.20841 18.8807 9.20841C19.7347 9.20841 20.509 9.5696 21.0502 10.1482C21.7279 10.0153 22.3645 9.7677 22.9395 9.42706C22.716 10.1216 22.2461 10.7039 21.6312 11.0723Z" fill="#979797"/>
</svg>
