<svg width="35" height="36" viewBox="0 0 35 36" fill="none" xmlns="http://www.w3.org/2000/svg">
<path d="M7.875 27.625L21 21.5L27.125 8.375L14 14.5L7.875 27.625ZM17.5 19.75C17.0042 19.75 16.5888 19.582 16.254 19.246C15.918 18.9112 15.75 18.4958 15.75 18C15.75 17.5042 15.918 17.0882 16.254 16.7522C16.5888 16.4174 17.0042 16.25 17.5 16.25C17.9958 16.25 18.4118 16.4174 18.7478 16.7522C19.0826 17.0882 19.25 17.5042 19.25 18C19.25 18.4958 19.0826 18.9112 18.7478 19.246C18.4118 19.582 17.9958 19.75 17.5 19.75ZM17.5 35.5C15.0792 35.5 12.8042 35.0403 10.675 34.121C8.54583 33.2028 6.69375 31.9563 5.11875 30.3813C3.54375 28.8063 2.29717 26.9542 1.379 24.825C0.459667 22.6958 0 20.4208 0 18C0 15.5792 0.459667 13.3042 1.379 11.175C2.29717 9.04583 3.54375 7.19375 5.11875 5.61875C6.69375 4.04375 8.54583 2.79658 10.675 1.87725C12.8042 0.959083 15.0792 0.5 17.5 0.5C19.9208 0.5 22.1958 0.959083 24.325 1.87725C26.4542 2.79658 28.3063 4.04375 29.8813 5.61875C31.4563 7.19375 32.7028 9.04583 33.621 11.175C34.5403 13.3042 35 15.5792 35 18C35 20.4208 34.5403 22.6958 33.621 24.825C32.7028 26.9542 31.4563 28.8063 29.8813 30.3813C28.3063 31.9563 26.4542 33.2028 24.325 34.121C22.1958 35.0403 19.9208 35.5 17.5 35.5Z" fill="#3282AD"/>
</svg>
